<svg width="485" height="485" viewBox="0 0 485 485" fill="none" xmlns="http://www.w3.org/2000/svg">
<circle cx="242.5" cy="242.5" r="242.5" fill="#273535"/>
<path fill-rule="evenodd" clip-rule="evenodd" d="M305.883 317.423C305.883 344.677 287.626 370.115 260.85 377.383C234.683 385.256 205.472 374.96 189.65 351.945C173.828 328.93 175.654 298.042 193.301 276.844C197.561 271.999 205.472 270.182 210.949 273.816L228.597 284.718C224.946 288.351 221.295 291.985 217.643 296.831C207.907 307.732 206.689 323.479 215.209 335.593C222.512 347.706 237.725 353.157 251.722 349.523C265.719 345.283 274.847 332.564 274.847 318.029C274.847 307.127 269.978 297.436 260.242 291.38L256.59 288.957L237.117 276.844L212.166 261.703L201.821 255.646C201.213 255.04 201.213 255.04 200.604 255.04C199.387 254.435 198.17 253.223 196.344 252.618C167.743 232.631 155.572 196.898 165.308 163.587C175.654 130.276 205.472 107.261 240.16 106.049C274.847 104.838 306.491 126.036 318.054 158.741C330.224 191.447 319.271 227.786 292.495 248.984C288.235 252.618 281.541 252.618 276.672 250.195L248.071 235.054V199.926H260.85V163.587H248.071V147.234H226.772V234.448L248.679 247.167L272.413 261.097C273.021 261.097 273.021 261.703 273.63 261.703L275.455 262.308C276.064 262.914 276.672 262.914 277.281 263.52C294.929 274.421 305.883 295.014 305.883 317.423Z" fill="white"/>
</svg>
