<svg version="1.1" id="Layer_1" xmlns="http://www.w3.org/2000/svg" xmlns:xlink="http://www.w3.org/1999/xlink" x="0px" y="0px"
	 width="100%" viewBox="0 0 512 512" xml:space="preserve">
<path fill="#464DB5" opacity="1.000000" stroke="none" 
	d="
M255.000000,513.000000 
	C245.979111,513.000000 236.958206,513.000000 227.588043,512.587158 
	C225.897018,511.783173 224.575485,511.290222 223.209930,511.019104 
	C218.133804,510.011383 213.043213,509.076569 208.059967,507.780792 
	C209.834671,505.404755 211.346252,503.201141 213.203400,501.342957 
	C309.276215,405.217712 405.376923,309.120361 501.486542,213.031937 
	C503.603882,210.915085 505.858582,208.935654 508.379364,207.135223 
	C509.496307,213.130173 510.237305,218.889267 511.144287,224.622086 
	C511.230286,225.165649 512.356628,225.544617 513.000000,226.000000 
	C513.000000,235.354233 513.000000,244.708450 512.673645,254.631500 
	C510.925018,256.318329 509.390625,257.321045 508.100983,258.575439 
	C503.821564,262.737854 499.616882,266.977600 495.407928,271.211884 
	C486.044769,280.631409 476.708282,290.077454 467.338409,299.490265 
	C458.440643,308.428772 449.529114,317.353699 440.596313,326.257202 
	C431.072174,335.750122 421.501160,345.195953 411.977997,354.689819 
	C402.577759,364.061096 393.210846,373.465790 383.831207,382.857697 
	C374.445465,392.255646 365.055786,401.649658 355.679413,411.056946 
	C346.659302,420.106781 337.677826,429.195282 328.635712,438.223053 
	C319.119659,447.723907 309.534851,457.155884 300.011566,466.649536 
	C290.611145,476.020660 281.174011,485.356873 271.899841,494.851837 
	C266.125610,500.763580 260.623962,506.941528 255.000000,513.000000 
z"/>
<path fill="#5F3EB7" opacity="1.000000" stroke="none" 
	d="
M286.531464,0.999997 
	C288.096741,1.665925 289.119843,2.695654 290.302917,2.935212 
	C295.606384,4.009097 300.955353,4.858093 306.551483,6.307089 
	C305.163269,9.075056 303.742035,11.547668 301.817780,13.532698 
	C295.222595,20.336157 288.448883,26.966505 281.747131,33.666706 
	C267.046509,48.363922 252.354919,63.070171 237.647278,77.760345 
	C220.588593,94.798790 203.509674,111.816986 186.452347,128.856812 
	C168.570236,146.720551 150.636307,164.533295 132.871277,182.512863 
	C127.658180,187.788879 122.943336,193.557236 117.546448,199.210297 
	C114.117592,199.347626 111.127533,199.572906 108.171059,199.350922 
	C104.562904,199.080002 103.094284,200.292038 103.278908,204.085709 
	C103.519348,209.026184 103.240265,213.991928 102.820251,218.998413 
	C98.826286,222.104996 94.989410,224.948410 91.611458,228.259933 
	C85.000465,234.740906 78.731270,241.569321 72.163994,248.096344 
	C62.898937,257.304596 53.399910,266.278168 44.171059,275.521942 
	C34.942368,284.765594 25.982235,294.277039 16.778122,303.545715 
	C13.778717,306.566132 10.382291,309.192261 7.167457,311.998749 
	C5.777611,305.065430 4.409733,298.127533 2.976826,291.203125 
	C2.730955,290.014984 2.207922,288.884216 1.406460,287.863464 
	C1.000000,280.979034 1.000000,273.958099 1.342870,266.382080 
	C3.108847,265.004303 4.787021,264.439087 5.916656,263.320099 
	C21.868170,247.519211 37.761982,231.659897 53.635605,215.780563 
	C70.683540,198.726501 87.675491,181.616470 104.728813,164.567810 
	C122.254089,147.047318 139.848083,129.595535 157.367477,112.069176 
	C174.415298,95.014572 191.377167,77.874039 208.431137,60.825626 
	C225.838898,43.423561 243.356491,26.131077 260.702087,8.667535 
	C262.856964,6.497991 264.252563,3.574258 266.000000,0.999997 
	C272.687653,1.000000 279.375275,1.000000 286.531464,0.999997 
z"/>
<path fill="#623DB7" opacity="1.000000" stroke="none" 
	d="
M265.531342,0.999997 
	C264.252563,3.574258 262.856964,6.497991 260.702087,8.667535 
	C243.356491,26.131077 225.838898,43.423561 208.431137,60.825626 
	C191.377167,77.874039 174.415298,95.014572 157.367477,112.069176 
	C139.848083,129.595535 122.254089,147.047318 104.728813,164.567810 
	C87.675491,181.616470 70.683540,198.726501 53.635605,215.780563 
	C37.761982,231.659897 21.868170,247.519211 5.916656,263.320099 
	C4.787021,264.439087 3.108847,265.004303 1.342870,265.913513 
	C1.000000,253.312439 1.000000,240.624878 1.000001,227.468658 
	C1.665713,225.886826 2.675348,224.847351 2.932680,223.646652 
	C3.706093,220.037888 4.186187,216.366257 5.287522,212.252075 
	C7.330213,210.535645 8.974888,209.397217 10.382232,208.016815 
	C15.225797,203.266037 20.013803,198.457642 24.771936,193.620987 
	C31.276680,187.008850 37.702320,180.318771 44.222004,173.721542 
	C50.391209,167.478958 56.617489,161.292297 62.856365,155.119156 
	C69.567787,148.478439 76.349808,141.909012 83.051903,135.258972 
	C90.100655,128.264969 97.093155,121.214249 104.106628,114.184708 
	C110.542854,107.733757 116.971237,101.274979 123.408653,94.825218 
	C130.189819,88.031059 136.976410,81.242302 143.762894,74.453461 
	C150.322144,67.891937 156.905457,61.354313 163.439117,54.767433 
	C169.851791,48.302525 176.162994,41.736298 182.614868,35.311073 
	C189.304276,28.649305 196.184555,22.178238 202.830948,15.474650 
	C206.063797,12.213975 208.953857,8.613435 211.999084,5.166755 
	C215.604004,4.443508 219.217209,3.758377 222.809082,2.975393 
	C223.993408,2.717222 225.122620,2.206234 226.138519,1.405424 
	C239.020889,1.000000 252.041794,1.000000 265.531342,0.999997 
z"/>
<path fill="#444EB5" opacity="1.000000" stroke="none" 
	d="
M311.999115,506.833679 
	C305.071411,508.223175 298.139160,509.590790 291.220306,511.023041 
	C290.034485,511.268524 288.905762,511.789612 287.875305,512.591675 
	C277.312439,513.000000 266.624878,513.000000 255.468658,513.000000 
	C260.623962,506.941528 266.125610,500.763580 271.899841,494.851837 
	C281.174011,485.356873 290.611145,476.020660 300.011566,466.649536 
	C309.534851,457.155884 319.119659,447.723907 328.635712,438.223053 
	C337.677826,429.195282 346.659302,420.106781 355.679413,411.056946 
	C365.055786,401.649658 374.445465,392.255646 383.831207,382.857697 
	C393.210846,373.465790 402.577759,364.061096 411.977997,354.689819 
	C421.501160,345.195953 431.072174,335.750122 440.596313,326.257202 
	C449.529114,317.353699 458.440643,308.428772 467.338409,299.490265 
	C476.708282,290.077454 486.044769,280.631409 495.407928,271.211884 
	C499.616882,266.977600 503.821564,262.737854 508.100983,258.575439 
	C509.390625,257.321045 510.925018,256.318329 512.673645,255.100159 
	C513.000000,265.354218 513.000000,275.708466 513.000000,286.531342 
	C512.333984,288.134918 511.312164,289.197144 511.062897,290.417206 
	C509.924530,295.989502 509.002930,301.606079 507.630676,307.749023 
	C496.607544,318.748871 485.882965,329.132141 475.326324,339.683411 
	C463.242798,351.760834 451.373718,364.052795 439.290741,376.130768 
	C427.443878,387.972839 415.368927,399.586853 403.532745,411.439484 
	C388.882812,426.109863 374.448608,440.995758 359.786346,455.653656 
	C345.241974,470.193726 330.454865,484.491669 315.980988,499.100647 
	C314.034698,501.065033 313.296661,504.226532 311.999115,506.833679 
z"/>
<path fill="#4A4BB6" opacity="1.000000" stroke="none" 
	d="
M491.107452,152.954285 
	C498.762329,170.016251 504.857086,187.574646 508.029114,206.480804 
	C505.858582,208.935654 503.603882,210.915085 501.486542,213.031937 
	C405.376923,309.120361 309.276215,405.217712 213.203400,501.342957 
	C211.346252,503.201141 209.834671,505.404755 208.059967,507.780762 
	C195.564117,504.860962 183.130569,501.748413 170.797073,498.280060 
	C166.296082,497.014313 162.032974,494.902557 157.338440,492.629883 
	C160.297424,487.870361 163.201523,483.285156 166.925690,479.508636 
	C184.336655,461.853088 201.992905,444.439667 219.524536,426.902740 
	C236.583984,409.838104 253.575684,392.705780 270.639282,375.645325 
	C288.175018,358.112854 305.789581,340.659210 323.318054,323.119507 
	C340.257202,306.169525 357.109314,289.132507 374.073212,272.207397 
	C375.438843,270.844879 377.374542,270.053741 379.244354,269.228546 
	C380.316956,269.961365 381.190521,270.462708 382.174866,271.290466 
	C387.857330,276.284027 394.318939,278.237122 401.528076,278.004303 
	C410.228058,277.723358 410.337830,279.996338 409.885559,268.526489 
	C409.957153,265.318817 410.135590,262.550964 409.905365,259.817566 
	C409.830383,258.927368 408.688904,258.126953 407.581635,257.221497 
	C401.907745,256.877960 396.033508,258.438660 393.048523,251.769318 
	C394.005890,249.630981 394.491852,247.474976 395.805542,246.123535 
	C401.911224,239.842407 408.267059,233.805252 414.493256,227.640274 
	C421.192444,221.006973 427.867859,214.349380 434.514893,207.663818 
	C440.925079,201.216507 447.262024,194.696381 453.674713,188.251572 
	C460.787567,181.103027 467.826965,173.874451 475.132385,166.926834 
	C480.254303,162.055756 485.768463,157.597092 491.107452,152.954285 
z"/>
<path fill="#4E49B6" opacity="1.000000" stroke="none" 
	d="
M379.045349,268.997101 
	C377.374542,270.053741 375.438843,270.844879 374.073212,272.207397 
	C357.109314,289.132507 340.257202,306.169525 323.318054,323.119507 
	C305.789581,340.659210 288.175018,358.112854 270.639282,375.645325 
	C253.575684,392.705780 236.583984,409.838104 219.524536,426.902740 
	C201.992905,444.439667 184.336655,461.853088 166.925690,479.508636 
	C163.201523,483.285156 160.297424,487.870361 157.007782,492.458069 
	C144.106186,486.122925 131.212387,479.412689 118.240402,472.067566 
	C119.386185,469.678955 120.382256,467.697235 121.871300,466.208588 
	C131.261093,456.821259 140.828171,447.611145 150.206253,438.212341 
	C162.044266,426.348175 173.690582,414.292603 185.543365,402.443390 
	C197.632355,390.358093 209.940063,378.491516 222.025330,366.402527 
	C233.874680,354.549530 245.496658,342.469238 257.340973,330.611115 
	C273.411377,314.521973 289.618286,298.569183 305.691498,282.482819 
	C306.783295,281.390137 307.245880,279.668732 308.456818,278.167786 
	C318.238525,278.260895 327.192017,277.249115 334.487396,269.933899 
	C337.160919,267.131897 339.547241,264.487640 342.219543,261.680969 
	C345.302704,258.332977 348.099945,255.147369 351.206238,251.777740 
	C356.083435,247.960220 360.493408,248.732834 364.945923,252.382309 
	C367.695282,255.470718 370.309937,258.247925 373.059265,261.332001 
	C375.144409,264.091644 377.094879,266.544373 379.045349,268.997101 
z"/>
<path fill="#5743B6" opacity="1.000000" stroke="none" 
	d="
M60.131523,420.403381 
	C53.095341,410.958923 45.630001,401.797302 39.161057,391.979126 
	C34.136124,384.352600 30.354252,375.907074 26.127897,367.136871 
	C27.681629,364.490295 28.940725,362.354675 30.606159,360.606049 
	C36.984657,353.908875 43.461067,347.303772 49.963413,340.726074 
	C56.237984,334.378815 62.594196,328.112305 68.906136,321.801880 
	C75.911331,314.798431 82.773888,307.645050 89.958321,300.830811 
	C94.062325,296.938293 98.683914,293.591461 103.156799,290.417969 
	C103.373413,292.536499 103.505707,294.235992 103.522789,296.393982 
	C103.380135,301.481232 103.140465,306.124664 103.460342,310.729248 
	C103.551041,312.034973 105.211212,314.238647 106.258308,314.303345 
	C111.978699,314.656708 117.732353,314.471588 123.889465,314.471588 
	C123.889465,307.812714 123.889465,301.895508 123.939911,295.515198 
	C124.011482,290.036987 124.032616,285.021912 124.227692,279.691956 
	C125.632301,273.791962 128.948837,269.613983 133.686493,266.061279 
	C141.508362,261.810486 148.655197,263.492859 155.933975,267.388000 
	C164.073990,271.855560 171.977310,276.066589 180.102997,280.525543 
	C184.552261,283.176819 188.779190,285.580170 192.959229,288.337097 
	C192.113281,289.899719 191.489731,291.283905 190.486649,292.289398 
	C183.911621,298.880402 177.211685,305.346710 170.632645,311.933746 
	C153.595474,328.991669 136.625305,346.116516 119.580452,363.166718 
	C101.829178,380.923523 84.049210,398.651947 66.194832,416.304901 
	C64.489799,417.990723 62.167358,419.052094 60.131523,420.403381 
z"/>
<path fill="#5246B6" opacity="1.000000" stroke="none" 
	d="
M60.120674,420.772644 
	C62.167358,419.052094 64.489799,417.990723 66.194832,416.304901 
	C84.049210,398.651947 101.829178,380.923523 119.580452,363.166718 
	C136.625305,346.116516 153.595474,328.991669 170.632645,311.933746 
	C177.211685,305.346710 183.911621,298.880402 190.486649,292.289398 
	C191.489731,291.283905 192.113281,289.899719 193.225830,288.354767 
	C193.889389,288.083313 194.239456,288.147797 194.722305,288.543823 
	C199.209457,291.258606 203.563858,293.641815 208.024231,296.226196 
	C208.130219,296.427399 208.486313,296.709961 208.486313,296.709961 
	C208.486313,296.709961 208.938126,296.659943 209.249176,296.805145 
	C210.375381,297.295074 211.190506,297.639801 212.158173,298.301941 
	C221.558395,303.689392 231.359482,306.602966 241.953278,306.578339 
	C240.360123,309.022125 239.058014,311.368195 237.235229,313.194641 
	C192.116531,358.403900 146.931747,403.547180 101.812111,448.755524 
	C99.611801,450.960114 97.897064,453.649384 95.956207,456.112976 
	C84.007408,444.455933 72.058609,432.798889 60.120674,420.772644 
z"/>
<path fill="#5D41B7" opacity="1.000000" stroke="none" 
	d="
M103.072464,289.998932 
	C98.683914,293.591461 94.062325,296.938293 89.958321,300.830811 
	C82.773888,307.645050 75.911331,314.798431 68.906136,321.801880 
	C62.594196,328.112305 56.237984,334.378815 49.963413,340.726074 
	C43.461067,347.303772 36.984657,353.908875 30.606159,360.606049 
	C28.940725,362.354675 27.681629,364.490295 26.092697,366.775757 
	C18.236189,352.805328 13.239925,337.485931 9.018299,321.883636 
	C8.211417,318.901550 7.690609,315.842102 7.102636,312.408539 
	C10.382291,309.192261 13.778717,306.566132 16.778122,303.545715 
	C25.982235,294.277039 34.942368,284.765594 44.171059,275.521942 
	C53.399910,266.278168 62.898937,257.304596 72.163994,248.096344 
	C78.731270,241.569321 85.000465,234.740906 91.611458,228.259933 
	C94.989410,224.948410 98.826286,222.104996 103.122635,219.288330 
	C105.741844,219.718643 107.693192,220.066147 109.646622,220.078354 
	C127.430443,220.189499 145.214630,220.242203 162.954285,220.656158 
	C160.966705,223.806732 159.173706,226.733231 157.046707,229.392624 
	C153.474167,233.859390 149.689178,238.156250 145.541443,242.596771 
	C128.285782,242.770462 115.552521,249.665176 107.610703,265.224701 
	C106.201385,269.971130 105.042572,274.467712 103.731110,279.337708 
	C103.409798,283.140411 103.241127,286.569672 103.072464,289.998932 
z"/>
<path fill="#4F49B6" opacity="1.000000" stroke="none" 
	d="
M96.105980,456.417603 
	C97.897064,453.649384 99.611801,450.960114 101.812111,448.755524 
	C146.931747,403.547180 192.116531,358.403900 237.235229,313.194641 
	C239.058014,311.368195 240.360123,309.022125 242.357483,306.475952 
	C251.470917,304.791748 259.537292,302.162933 266.447815,295.995453 
	C270.508270,291.290436 274.230652,286.638184 278.214844,281.745972 
	C280.342834,276.004608 282.209045,270.503204 284.395813,264.898712 
	C297.511566,252.108353 310.306824,239.421097 323.388428,226.856842 
	C324.451691,227.653030 325.228577,228.326202 326.120972,229.316269 
	C328.314392,231.705795 330.392334,233.778397 332.479736,236.197678 
	C333.013031,237.765030 333.536835,238.985718 333.760773,240.340866 
	C330.975830,243.321640 328.490753,246.167969 325.696014,249.148621 
	C320.810822,254.828674 315.539948,258.430420 307.728943,257.270813 
	C304.291504,256.760468 305.417542,259.978424 305.350342,262.403259 
	C305.318481,265.210754 305.369751,267.579987 305.338013,270.375366 
	C305.802521,273.416718 303.331146,277.146484 308.001099,278.239716 
	C307.245880,279.668732 306.783295,281.390137 305.691498,282.482819 
	C289.618286,298.569183 273.411377,314.521973 257.340973,330.611115 
	C245.496658,342.469238 233.874680,354.549530 222.025330,366.402527 
	C209.940063,378.491516 197.632355,390.358093 185.543365,402.443390 
	C173.690582,414.292603 162.044266,426.348175 150.206253,438.212341 
	C140.828171,447.611145 131.261093,456.821259 121.871300,466.208588 
	C120.382256,467.697235 119.386185,469.678955 118.059937,471.773010 
	C110.723694,466.982910 103.489716,461.852570 96.105980,456.417603 
z"/>
<path fill="#653BB7" opacity="1.000000" stroke="none" 
	d="
M211.579926,5.101843 
	C208.953857,8.613435 206.063797,12.213975 202.830948,15.474650 
	C196.184555,22.178238 189.304276,28.649305 182.614868,35.311073 
	C176.162994,41.736298 169.851791,48.302525 163.439117,54.767433 
	C156.905457,61.354313 150.322144,67.891937 143.762894,74.453461 
	C136.976410,81.242302 130.189819,88.031059 123.408653,94.825218 
	C116.971237,101.274979 110.542854,107.733757 104.106628,114.184708 
	C97.093155,121.214249 90.100655,128.264969 83.051903,135.258972 
	C76.349808,141.909012 69.567787,148.478439 62.856365,155.119156 
	C56.617489,161.292297 50.391209,167.478958 44.222004,173.721542 
	C37.702320,180.318771 31.276680,187.008850 24.771936,193.620987 
	C20.013803,198.457642 15.225797,203.266037 10.382232,208.016815 
	C8.974888,209.397217 7.330213,210.535645 5.480494,211.891830 
	C6.916807,203.713760 7.781228,195.112854 10.600960,187.209549 
	C16.523956,170.608231 22.647184,153.979218 30.220274,138.091843 
	C38.912071,119.857567 50.887470,103.577751 64.143883,88.229561 
	C80.444557,69.356728 99.243889,53.503891 120.269020,40.275902 
	C145.408081,24.459631 172.324326,12.826278 201.571350,6.958726 
	C204.767685,6.317476 207.964279,5.677502 211.579926,5.101843 
z"/>
<path fill="#4150B5" opacity="1.000000" stroke="none" 
	d="
M312.408752,506.897827 
	C313.296661,504.226532 314.034698,501.065033 315.980988,499.100647 
	C330.454865,484.491669 345.241974,470.193726 359.786346,455.653656 
	C374.448608,440.995758 388.882812,426.109863 403.532745,411.439484 
	C415.368927,399.586853 427.443878,387.972839 439.290741,376.130768 
	C451.373718,364.052795 463.242798,351.760834 475.326324,339.683411 
	C485.882965,329.132141 496.607544,318.748871 507.545593,308.146057 
	C504.138550,321.186920 501.157074,334.625641 496.595337,347.504639 
	C488.047668,371.636871 475.578339,393.837524 459.513885,413.766785 
	C450.400299,425.072968 440.719727,436.085815 430.153931,446.017456 
	C416.153748,459.177368 400.455811,470.285614 383.651123,479.821381 
	C362.102997,492.048767 339.230835,500.740234 315.304565,506.852905 
	C314.517883,507.053864 313.648956,506.932861 312.408752,506.897827 
z"/>
<path fill="#5942B6" opacity="1.000000" stroke="none" 
	d="
M353.039154,19.880695 
	C361.536407,23.661261 370.199249,27.115858 378.479950,31.322685 
	C385.449005,34.863140 391.973572,39.278519 398.670410,43.873718 
	C392.638306,50.390781 386.582062,56.292568 380.633301,62.300751 
	C368.628052,74.425941 356.761627,86.689468 344.689575,98.747406 
	C330.157043,113.262947 315.429382,127.582924 300.861176,142.062988 
	C284.883118,157.944336 268.927032,173.849136 253.119034,189.898987 
	C250.262604,192.799088 248.167252,196.448807 245.269226,199.789520 
	C238.169952,199.684158 231.522583,199.471359 224.873886,199.413269 
	C208.582825,199.270920 192.291153,199.199951 176.095963,198.765869 
	C180.271698,193.885345 184.217880,189.210297 188.461395,184.822815 
	C195.135803,177.921936 202.011765,171.216049 208.799881,164.425095 
	C215.360687,157.861542 221.914780,151.291260 228.478333,144.730438 
	C235.269318,137.942291 242.080872,131.174698 248.859940,124.374680 
	C255.528259,117.685783 262.159576,110.960030 268.820984,104.264229 
	C275.244690,97.807312 281.668488,91.350258 288.124573,84.925758 
	C294.819275,78.263802 301.595215,71.682999 308.257385,64.988808 
	C314.682617,58.532677 320.967346,51.936768 327.387238,45.475220 
	C335.900574,36.906635 344.485168,28.408875 353.039154,19.880695 
z"/>
<path fill="#5D40B6" opacity="1.000000" stroke="none" 
	d="
M352.844177,19.576668 
	C344.485168,28.408875 335.900574,36.906635 327.387238,45.475220 
	C320.967346,51.936768 314.682617,58.532677 308.257385,64.988808 
	C301.595215,71.682999 294.819275,78.263802 288.124573,84.925758 
	C281.668488,91.350258 275.244690,97.807312 268.820984,104.264229 
	C262.159576,110.960030 255.528259,117.685783 248.859940,124.374680 
	C242.080872,131.174698 235.269318,137.942291 228.478333,144.730438 
	C221.914780,151.291260 215.360687,157.861542 208.799881,164.425095 
	C202.011765,171.216049 195.135803,177.921936 188.461395,184.822815 
	C184.217880,189.210297 180.271698,193.885345 175.638519,198.876419 
	C156.056625,199.247574 137.028381,199.173767 118.000137,199.099945 
	C122.943336,193.557236 127.658180,187.788879 132.871277,182.512863 
	C150.636307,164.533295 168.570236,146.720551 186.452347,128.856812 
	C203.509674,111.816986 220.588593,94.798790 237.647278,77.760345 
	C252.354919,63.070171 267.046509,48.363922 281.747131,33.666706 
	C288.448883,26.966505 295.222595,20.336157 301.817780,13.532698 
	C303.742035,11.547668 305.163269,9.075056 306.906433,6.496216 
	C313.328491,7.470564 319.785767,8.348090 325.959930,10.179816 
	C334.963135,12.850836 343.762756,16.207998 352.844177,19.576668 
z"/>
<path fill="#5545B6" opacity="1.000000" stroke="none" 
	d="
M245.720520,199.752441 
	C248.167252,196.448807 250.262604,192.799088 253.119034,189.898987 
	C268.927032,173.849136 284.883118,157.944336 300.861176,142.062988 
	C315.429382,127.582924 330.157043,113.262947 344.689575,98.747406 
	C356.761627,86.689468 368.628052,74.425941 380.633301,62.300751 
	C386.582062,56.292568 392.638306,50.390781 398.848907,44.168411 
	C411.305084,53.712879 423.558228,63.529778 435.675781,73.836594 
	C431.902588,77.717758 428.200623,81.043007 424.641541,84.514763 
	C418.357666,90.644516 412.166473,96.869186 405.926147,103.043678 
	C399.212708,109.686333 392.468964,116.298447 385.772308,122.957924 
	C378.846924,129.844818 371.957764,136.768188 365.060944,143.683746 
	C358.507996,150.254517 351.971832,156.842010 345.416962,163.410858 
	C338.751190,170.090851 331.926270,176.619720 325.446564,183.475159 
	C320.732239,188.462830 316.465851,193.873886 311.597992,199.205444 
	C308.624817,199.713135 304.866089,198.099854 304.598389,203.045013 
	C296.829956,210.059891 289.414978,217.029953 281.633362,223.999939 
	C280.533508,223.999634 279.800262,223.999420 278.820374,223.768967 
	C277.310516,221.706833 276.047302,219.874908 274.677216,217.731049 
	C267.161774,207.924500 257.261139,202.499405 245.720520,199.752441 
z"/>
<path fill="#5246B6" opacity="1.000000" stroke="none" 
	d="
M311.999786,199.096191 
	C316.465851,193.873886 320.732239,188.462830 325.446564,183.475159 
	C331.926270,176.619720 338.751190,170.090851 345.416962,163.410858 
	C351.971832,156.842010 358.507996,150.254517 365.060944,143.683746 
	C371.957764,136.768188 378.846924,129.844818 385.772308,122.957924 
	C392.468964,116.298447 399.212708,109.686333 405.926147,103.043678 
	C412.166473,96.869186 418.357666,90.644516 424.641541,84.514763 
	C428.200623,81.043007 431.902588,77.717758 435.823975,74.139130 
	C444.399445,83.278847 452.694946,92.602570 460.977753,101.937584 
	C461.956207,103.040382 462.864746,104.205208 463.671570,105.835571 
	C459.599548,110.359718 455.683929,114.411606 451.719391,118.415016 
	C442.261017,127.966103 432.793976,137.508713 423.303284,147.027664 
	C413.935181,156.423721 404.540375,165.793182 395.144928,175.161957 
	C385.626526,184.653458 376.059113,194.096085 366.578369,203.625000 
	C360.502625,209.731598 354.544952,215.955719 348.366760,221.876099 
	C348.301941,221.452026 348.404724,221.279022 348.203796,221.006027 
	C347.332367,220.604294 346.764648,220.302536 346.005066,219.730988 
	C344.579681,218.219025 343.346161,216.976883 341.969299,215.438751 
	C334.443268,205.036728 324.697418,199.323151 311.999786,199.096191 
z"/>
<path fill="#4F49B6" opacity="1.000000" stroke="none" 
	d="
M348.534363,222.127151 
	C354.544952,215.955719 360.502625,209.731598 366.578369,203.625000 
	C376.059113,194.096085 385.626526,184.653458 395.144928,175.161957 
	C404.540375,165.793182 413.935181,156.423721 423.303284,147.027664 
	C432.793976,137.508713 442.261017,127.966103 451.719391,118.415016 
	C455.683929,114.411606 459.599548,110.359718 463.822388,106.141098 
	C474.677460,120.443787 483.490509,135.956024 491.050232,152.591949 
	C485.768463,157.597092 480.254303,162.055756 475.132385,166.926834 
	C467.826965,173.874451 460.787567,181.103027 453.674713,188.251572 
	C447.262024,194.696381 440.925079,201.216507 434.514893,207.663818 
	C427.867859,214.349380 421.192444,221.006973 414.493256,227.640274 
	C408.267059,233.805252 401.911224,239.842407 395.805542,246.123535 
	C394.491852,247.474976 394.005890,249.630981 392.797699,251.615601 
	C391.723389,251.174255 390.989990,250.533646 390.106445,249.582825 
	C387.564514,246.726364 385.172729,244.180115 382.633728,241.317230 
	C379.583649,238.590652 382.562500,237.016647 383.604614,234.968506 
	C386.966705,231.310715 390.045471,227.811523 393.433380,224.133972 
	C398.074615,218.483109 404.621887,220.882950 410.394470,219.775284 
	C410.274506,217.897125 410.182068,216.450089 410.201355,214.604614 
	C410.313080,209.458313 410.313080,204.710434 410.313080,199.904510 
	C394.770721,197.584244 382.843475,202.416092 373.925415,215.197113 
	C372.060822,217.175522 370.494904,219.003204 368.629150,220.990295 
	C361.796539,229.495087 356.463348,229.725449 351.029663,225.402084 
	C350.126801,224.136612 349.330566,223.131882 348.534363,222.127151 
z"/>
<path fill="#F5F3FA" opacity="1.000000" stroke="none" 
	d="
M245.269226,199.789520 
	C257.261139,202.499405 267.161774,207.924500 274.283691,217.820831 
	C266.435059,218.481567 258.866180,218.624008 251.315628,219.074020 
	C249.181412,219.201248 247.100815,220.227951 244.578934,220.840820 
	C242.519135,220.663559 240.876038,220.487579 238.818649,220.228424 
	C213.269150,220.200836 188.133926,220.256409 162.998718,220.311996 
	C145.214630,220.242203 127.430443,220.189499 109.646622,220.078354 
	C107.693192,220.066147 105.741844,219.718643 103.487152,219.236725 
	C103.240265,213.991928 103.519348,209.026184 103.278908,204.085709 
	C103.094284,200.292038 104.562904,199.080002 108.171059,199.350922 
	C111.127533,199.572906 114.117592,199.347626 117.546455,199.210281 
	C137.028381,199.173767 156.056625,199.247574 175.542297,199.210815 
	C192.291153,199.199951 208.582825,199.270920 224.873886,199.413269 
	C231.522583,199.471359 238.169952,199.684158 245.269226,199.789520 
z"/>
<path fill="#C1BFE5" opacity="1.000000" stroke="none" 
	d="
M379.244354,269.228546 
	C377.094879,266.544373 375.144409,264.091644 373.532959,261.325562 
	C375.850403,261.007324 377.828857,261.002197 379.807312,260.997650 
	C386.731750,260.981750 393.672302,261.232788 400.572418,260.815063 
	C403.221191,260.654724 407.214752,261.892670 408.035217,257.285492 
	C408.688904,258.126953 409.830383,258.927368 409.905365,259.817566 
	C410.135590,262.550964 409.957153,265.318817 409.479248,268.581848 
	C404.602661,269.394073 400.184296,269.694916 395.766327,270.002014 
	C391.198700,270.319550 386.631500,270.643127 382.064117,270.964050 
	C381.190521,270.462708 380.316956,269.961365 379.244354,269.228546 
z"/>
<path fill="#CAC6E9" opacity="1.000000" stroke="none" 
	d="
M407.581635,257.221497 
	C407.214752,261.892670 403.221191,260.654724 400.572418,260.815063 
	C393.672302,261.232788 386.731750,260.981750 379.807312,260.997650 
	C377.828857,261.002197 375.850403,261.007324 373.398285,261.018646 
	C370.309937,258.247925 367.695282,255.470718 365.398865,252.368896 
	C373.896912,251.327179 382.076752,250.610107 390.256592,249.893036 
	C390.989990,250.533646 391.723389,251.174255 392.707611,251.968567 
	C396.033508,258.438660 401.907745,256.877960 407.581635,257.221497 
z"/>
<path fill="#B6B3E1" opacity="1.000000" stroke="none" 
	d="
M382.174866,271.290466 
	C386.631500,270.643127 391.198700,270.319550 395.766327,270.002014 
	C400.184296,269.694916 404.602661,269.394073 409.427185,269.035065 
	C410.337830,279.996338 410.228058,277.723358 401.528076,278.004303 
	C394.318939,278.237122 387.857330,276.284027 382.174866,271.290466 
z"/>
<path fill="#D2D0EC" opacity="1.000000" stroke="none" 
	d="
M390.106445,249.582825 
	C382.076752,250.610107 373.896912,251.327179 365.264160,252.057648 
	C360.493408,248.732834 356.083435,247.960220 350.744324,251.781296 
	C343.642395,251.975510 337.300415,252.188705 330.987762,251.852356 
	C329.281525,251.761444 327.663940,250.005814 326.005676,249.014282 
	C328.490753,246.167969 330.975830,243.321640 333.905609,240.671310 
	C336.252869,241.575974 338.146301,242.868286 340.059448,242.898117 
	C352.034332,243.084824 364.014435,243.059036 375.990845,242.927032 
	C378.258698,242.902054 380.517792,242.085297 382.780945,241.633865 
	C385.172729,244.180115 387.564514,246.726364 390.106445,249.582825 
z"/>
<path fill="#CAC6E9" opacity="1.000000" stroke="none" 
	d="
M325.696045,249.148621 
	C327.663940,250.005814 329.281525,251.761444 330.987762,251.852356 
	C337.300415,252.188705 343.642395,251.975510 350.435242,251.965302 
	C348.099945,255.147369 345.302704,258.332977 341.845551,261.523376 
	C329.268250,261.673767 317.350861,261.819366 305.433472,261.964996 
	C305.417542,259.978424 304.291504,256.760468 307.728943,257.270813 
	C315.539948,258.430420 320.810822,254.828674 325.696045,249.148621 
z"/>
<path fill="#C1BFE5" opacity="1.000000" stroke="none" 
	d="
M305.350342,262.403259 
	C317.350861,261.819366 329.268250,261.673767 341.559631,261.685760 
	C339.547241,264.487640 337.160919,267.131897 334.004944,269.913757 
	C323.963898,270.017303 314.692444,269.983276 305.421021,269.949249 
	C305.369751,267.579987 305.318481,265.210754 305.350342,262.403259 
z"/>
<path fill="#B6B3E1" opacity="1.000000" stroke="none" 
	d="
M305.338013,270.375366 
	C314.692444,269.983276 323.963898,270.017303 333.717773,270.071472 
	C327.192017,277.249115 318.238525,278.260895 308.456818,278.167786 
	C303.331146,277.146484 305.802521,273.416718 305.338013,270.375366 
z"/>
<path fill="#D6D0ED" opacity="1.000000" stroke="none" 
	d="
M107.861214,264.974792 
	C115.552521,249.665176 128.285782,242.770462 145.955475,242.705933 
	C151.882050,244.211151 157.285889,244.986053 161.933304,247.288055 
	C172.473251,252.508865 182.640762,258.481598 192.732605,264.444275 
	C190.461487,265.159393 188.430435,265.854858 186.371246,265.951569 
	C176.150665,266.431580 165.922668,266.753754 155.697281,267.131500 
	C148.655197,263.492859 141.508362,261.810486 133.260956,265.946472 
	C129.356049,265.617676 126.243912,265.145020 123.120270,265.049835 
	C118.037872,264.895020 112.947960,264.987000 107.861214,264.974792 
z"/>
<path fill="#CBC5E9" opacity="1.000000" stroke="none" 
	d="
M155.933975,267.388000 
	C165.922668,266.753754 176.150665,266.431580 186.371246,265.951569 
	C188.430435,265.854858 190.461487,265.159393 193.063660,264.516052 
	C195.056992,264.953156 196.492188,265.614197 198.160553,266.511475 
	C203.615494,269.825867 208.837280,272.903992 213.757874,276.224945 
	C211.909180,276.970856 210.374268,277.857330 208.811935,277.908630 
	C203.000870,278.099396 197.163269,277.748779 191.370224,278.128754 
	C187.509979,278.382019 183.708435,279.530029 179.880630,280.277618 
	C171.977310,276.066589 164.073990,271.855560 155.933975,267.388000 
z"/>
<path fill="#B3A9DE" opacity="1.000000" stroke="none" 
	d="
M123.889465,295.978271 
	C123.889465,301.895508 123.889465,307.812714 123.889465,314.471588 
	C117.732353,314.471588 111.978699,314.656708 106.258308,314.303345 
	C105.211212,314.238647 103.551041,312.034973 103.460342,310.729248 
	C103.140465,306.124664 103.380135,301.481232 103.923340,296.405029 
	C110.922554,295.964447 117.406013,295.971344 123.889465,295.978271 
z"/>
<path fill="#C1BFE5" opacity="1.000000" stroke="none" 
	d="
M180.102997,280.525543 
	C183.708435,279.530029 187.509979,278.382019 191.370224,278.128754 
	C197.163269,277.748779 203.000870,278.099396 208.811935,277.908630 
	C210.374268,277.857330 211.909180,276.970856 214.114182,276.250458 
	C220.687973,278.941284 226.604248,281.849365 232.133087,284.922394 
	C227.221634,285.724884 222.715775,286.601685 218.169556,286.946899 
	C210.322769,287.542694 202.450882,287.808167 194.589539,288.212280 
	C194.239456,288.147797 193.889389,288.083313 193.272705,288.001160 
	C188.779190,285.580170 184.552261,283.176819 180.102997,280.525543 
z"/>
<path fill="#C3BAE4" opacity="1.000000" stroke="none" 
	d="
M123.939911,295.515198 
	C117.406013,295.971344 110.922554,295.964447 104.038544,295.946503 
	C103.505707,294.235992 103.373413,292.536499 103.156792,290.417969 
	C103.241127,286.569672 103.409798,283.140411 104.145966,279.433533 
	C111.160217,279.439575 117.606979,279.723206 124.053741,280.006805 
	C124.032616,285.021912 124.011482,290.036987 123.939911,295.515198 
z"/>
<path fill="#CBC5E9" opacity="1.000000" stroke="none" 
	d="
M124.227684,279.691956 
	C117.606979,279.723206 111.160217,279.439575 104.298607,279.060120 
	C105.042572,274.467712 106.201385,269.971130 107.610703,265.224670 
	C112.947960,264.987000 118.037872,264.895020 123.120270,265.049835 
	C126.243912,265.145020 129.356049,265.617676 132.898895,266.035583 
	C128.948837,269.613983 125.632301,273.791962 124.227684,279.691956 
z"/>
<path fill="#BDB9E3" opacity="1.000000" stroke="none" 
	d="
M194.722305,288.543823 
	C202.450882,287.808167 210.322769,287.542694 218.169556,286.946899 
	C222.715775,286.601685 227.221634,285.724884 232.555862,284.944031 
	C240.506622,286.031708 247.028046,284.335571 253.566559,280.792236 
	C261.991241,281.303680 269.972137,281.644806 277.953033,281.985931 
	C274.230652,286.638184 270.508270,291.290436 265.971863,295.986786 
	C249.733032,296.021545 234.307358,295.930481 218.884308,296.091400 
	C216.585068,296.115387 214.298218,297.323975 212.005630,297.984558 
	C211.190506,297.639801 210.375381,297.295074 209.091278,296.680664 
	C208.404465,296.251678 208.169769,296.123016 207.918259,296.024994 
	C203.563858,293.641815 199.209457,291.258606 194.722305,288.543823 
z"/>
<path fill="#B4B0E0" opacity="1.000000" stroke="none" 
	d="
M212.158173,298.301941 
	C214.298218,297.323975 216.585068,296.115387 218.884308,296.091400 
	C234.307358,295.930481 249.733032,296.021545 265.633789,296.039551 
	C259.537292,302.162933 251.470917,304.791748 242.405975,306.136169 
	C231.359482,306.602966 221.558395,303.689392 212.158173,298.301941 
z"/>
<path fill="#B4B0E0" opacity="1.000000" stroke="none" 
	d="
M208.024231,296.226196 
	C208.169769,296.123016 208.404465,296.251678 208.780228,296.535461 
	C208.938126,296.659943 208.486313,296.709961 208.486313,296.709961 
	C208.486313,296.709961 208.130219,296.427399 208.024231,296.226196 
z"/>
<path fill="#5843B6" opacity="1.000000" stroke="none" 
	d="
M197.927383,266.275238 
	C196.492188,265.614197 195.056992,264.953156 193.290741,264.220337 
	C182.640762,258.481598 172.473251,252.508865 161.933304,247.288055 
	C157.285889,244.986053 151.882050,244.211151 146.407608,242.633759 
	C149.689178,238.156250 153.474167,233.859390 157.046707,229.392624 
	C159.173706,226.733231 160.966705,223.806732 162.954285,220.656158 
	C188.133926,220.256409 213.269150,220.200836 238.702301,220.594421 
	C238.359543,221.992935 237.849411,223.071198 237.058502,223.872208 
	C226.123306,234.946793 215.057266,245.894287 204.253189,257.094666 
	C201.707733,259.733490 200.013306,263.193176 197.927383,266.275238 
z"/>
<path fill="#5246B6" opacity="1.000000" stroke="none" 
	d="
M282.000000,224.000000 
	C289.414978,217.029953 296.829956,210.059891 304.687317,203.504532 
	C305.236053,208.933670 305.342346,213.948090 305.439148,219.250702 
	C305.950531,219.671555 306.471344,219.804245 307.436707,220.013367 
	C310.583191,220.074158 313.285126,220.058548 316.251343,220.240173 
	C318.711121,222.536194 320.906616,224.635010 323.102081,226.733826 
	C310.306824,239.421097 297.511566,252.108353 284.333405,264.520203 
	C283.858124,263.485382 283.765747,262.725952 283.739990,261.507812 
	C283.760284,256.689392 283.713989,252.329666 283.741089,247.576340 
	C283.904572,246.121490 283.994720,245.060211 284.320312,243.870651 
	C284.396698,242.828583 284.237579,241.914825 283.987122,240.622574 
	C283.321350,237.495667 282.746887,234.747223 282.380493,231.873535 
	C282.138947,230.831589 281.689362,229.914902 281.072083,228.785248 
	C280.864075,228.219330 280.823700,227.866379 280.928955,227.170303 
	C281.383087,225.884781 281.691559,224.942398 282.000000,224.000000 
z"/>
<path fill="#E2E0F3" opacity="1.000000" stroke="none" 
	d="
M351.136353,225.662842 
	C356.463348,229.725449 361.796539,229.495087 368.848053,221.315521 
	C371.714844,221.988449 374.040436,222.713806 376.415558,222.958954 
	C381.972504,223.532547 387.553192,223.875809 393.124268,224.312332 
	C390.045471,227.811523 386.966705,231.310715 383.115173,234.944031 
	C372.519012,235.051559 362.694153,234.913620 352.872620,235.036636 
	C346.069489,235.121841 339.270905,235.566803 332.470276,235.850998 
	C330.392334,233.778397 328.314392,231.705795 326.537964,229.264069 
	C332.921356,228.594788 339.018860,228.462952 345.076569,227.901520 
	C347.147858,227.709549 349.119293,226.440048 351.136353,225.662842 
z"/>
<path fill="#CAC6E9" opacity="1.000000" stroke="none" 
	d="
M283.673370,261.966522 
	C283.765747,262.725952 283.858124,263.485382 284.012878,264.623291 
	C282.209045,270.503204 280.342834,276.004608 278.214844,281.745972 
	C269.972137,281.644806 261.991241,281.303680 253.792267,280.515381 
	C259.483093,275.067657 262.462250,268.595459 263.617828,260.984497 
	C270.606140,261.315582 277.139740,261.641052 283.673370,261.966522 
z"/>
<path fill="#DAD9F0" opacity="1.000000" stroke="none" 
	d="
M332.479736,236.197678 
	C339.270905,235.566803 346.069489,235.121841 352.872620,235.036636 
	C362.694153,234.913620 372.519012,235.051559 382.831879,235.102631 
	C382.562500,237.016647 379.583649,238.590652 382.633728,241.317230 
	C380.517792,242.085297 378.258698,242.902054 375.990845,242.927032 
	C364.014435,243.059036 352.034332,243.084824 340.059448,242.898117 
	C338.146301,242.868286 336.252869,241.575974 334.205475,240.536850 
	C333.536835,238.985718 333.013031,237.765030 332.479736,236.197678 
z"/>
<path fill="#E8E7F5" opacity="1.000000" stroke="none" 
	d="
M351.029663,225.402100 
	C349.119293,226.440048 347.147858,227.709549 345.076569,227.901520 
	C339.018860,228.462952 332.921356,228.594788 326.422485,228.947174 
	C325.228577,228.326202 324.451691,227.653030 323.388428,226.856842 
	C320.906616,224.635010 318.711121,222.536194 316.469177,219.924835 
	C318.118286,218.943298 319.801147,218.133469 321.511841,218.069778 
	C326.491943,217.884293 331.496033,218.201996 336.463593,217.890244 
	C338.384125,217.769730 340.231812,216.487640 342.112671,215.734741 
	C343.346161,216.976883 344.579681,218.219025 346.115173,220.077179 
	C347.113922,220.830795 347.810699,220.968399 348.507477,221.105988 
	C348.404724,221.279022 348.301941,221.452026 348.366760,221.876099 
	C349.330566,223.131882 350.126801,224.136612 351.029663,225.402100 
z"/>
<path fill="#F3F2FA" opacity="1.000000" stroke="none" 
	d="
M341.969299,215.438751 
	C340.231812,216.487640 338.384125,217.769730 336.463593,217.890244 
	C331.496033,218.201996 326.491943,217.884293 321.511841,218.069778 
	C319.801147,218.133469 318.118286,218.943298 316.204895,219.727600 
	C313.285126,220.058548 310.583191,220.074158 307.268616,219.854965 
	C306.253540,219.400955 305.851105,219.181747 305.448669,218.962524 
	C305.342346,213.948090 305.236053,208.933670 305.040771,203.459717 
	C304.866089,198.099854 308.624817,199.713135 311.597992,199.205444 
	C324.697418,199.323151 334.443268,205.036728 341.969299,215.438751 
z"/>
<path fill="#EFEDF8" opacity="1.000000" stroke="none" 
	d="
M280.783295,227.513443 
	C280.823700,227.866379 280.864075,228.219330 281.054871,229.106018 
	C281.235474,230.066940 281.265656,230.494110 280.869781,231.018112 
	C273.593475,231.424942 266.743225,231.734909 259.625488,231.847351 
	C254.570541,228.047241 249.783096,224.444687 244.995636,220.842102 
	C247.100815,220.227951 249.181412,219.201248 251.315628,219.074020 
	C258.866180,218.624008 266.435059,218.481567 274.390564,218.132751 
	C276.047302,219.874908 277.310516,221.706833 278.806335,224.132523 
	C279.620392,225.655350 280.201843,226.584396 280.783295,227.513443 
z"/>
<path fill="#5545B6" opacity="1.000000" stroke="none" 
	d="
M280.928955,227.170303 
	C280.201843,226.584396 279.620392,225.655350 279.052979,224.362747 
	C279.800262,223.999420 280.533508,223.999634 281.633392,223.999939 
	C281.691559,224.942398 281.383087,225.884781 280.928955,227.170303 
z"/>
<path fill="#4F49B6" opacity="1.000000" stroke="none" 
	d="
M348.203796,221.006012 
	C347.810699,220.968399 347.113922,220.830795 346.307037,220.346985 
	C346.764648,220.302536 347.332367,220.604294 348.203796,221.006012 
z"/>
<path fill="#F3F2FA" opacity="1.000000" stroke="none" 
	d="
M374.224030,215.046387 
	C382.843475,202.416092 394.770721,197.584244 410.313080,199.904510 
	C410.313080,204.710434 410.313080,209.458313 409.787415,214.693588 
	C397.582489,215.136124 385.903259,215.091248 374.224030,215.046387 
z"/>
<path fill="#EFEDF8" opacity="1.000000" stroke="none" 
	d="
M373.925415,215.197113 
	C385.903259,215.091248 397.582489,215.136124 409.675659,215.092010 
	C410.182068,216.450089 410.274506,217.897125 410.394470,219.775284 
	C404.621887,220.882950 398.074615,218.483109 393.433380,224.133972 
	C387.553192,223.875809 381.972504,223.532547 376.415558,222.958954 
	C374.040436,222.713806 371.714844,221.988449 369.147858,221.156082 
	C370.494904,219.003204 372.060822,217.175522 373.925415,215.197113 
z"/>
<path fill="#5545B6" opacity="1.000000" stroke="none" 
	d="
M244.578934,220.840820 
	C249.783096,224.444687 254.570541,228.047241 259.703308,232.218369 
	C261.090363,237.519394 262.132111,242.251862 263.103455,247.445221 
	C263.076385,252.263672 263.119751,256.621246 263.163147,260.978821 
	C262.462250,268.595459 259.483093,275.067657 253.348450,280.345062 
	C247.028046,284.335571 240.506622,286.031708 232.943298,284.779114 
	C226.604248,281.849365 220.687973,278.941284 214.415375,276.007660 
	C208.837280,272.903992 203.615494,269.825867 198.160553,266.511475 
	C200.013306,263.193176 201.707733,259.733490 204.253189,257.094666 
	C215.057266,245.894287 226.123306,234.946793 237.058502,223.872208 
	C237.849411,223.071198 238.359543,221.992935 239.116577,220.677612 
	C240.876038,220.487579 242.519135,220.663559 244.578934,220.840820 
z"/>
<path fill="#E2E0F3" opacity="1.000000" stroke="none" 
	d="
M263.173859,246.984329 
	C262.132111,242.251862 261.090363,237.519394 259.970795,232.415909 
	C266.743225,231.734909 273.593475,231.424942 281.067291,231.148895 
	C281.842499,231.460083 282.003021,231.732056 282.172455,231.998795 
	C282.746887,234.747223 283.321350,237.495667 283.908386,240.993423 
	C283.975647,242.494812 284.030243,243.246887 284.084869,243.998947 
	C283.994720,245.060211 283.904572,246.121490 283.294800,247.576874 
	C276.241394,247.642105 269.707642,247.313217 263.173859,246.984329 
z"/>
<path fill="#D8D5EE" opacity="1.000000" stroke="none" 
	d="
M263.103455,247.445221 
	C269.707642,247.313217 276.241394,247.642105 283.221436,247.970459 
	C283.713989,252.329666 283.760284,256.689392 283.739990,261.507812 
	C277.139740,261.641052 270.606140,261.315582 263.617828,260.984497 
	C263.119751,256.621246 263.076385,252.263672 263.103455,247.445221 
z"/>
<path fill="#5545B6" opacity="1.000000" stroke="none" 
	d="
M282.380493,231.873535 
	C282.003021,231.732056 281.842499,231.460083 281.493347,231.052063 
	C281.265656,230.494110 281.235474,230.066940 281.222534,229.319000 
	C281.689362,229.914902 282.138947,230.831589 282.380493,231.873535 
z"/>
<path fill="#5545B6" opacity="1.000000" stroke="none" 
	d="
M284.320312,243.870651 
	C284.030243,243.246887 283.975647,242.494812 283.999756,241.371902 
	C284.237579,241.914825 284.396698,242.828583 284.320312,243.870651 
z"/>
<path fill="#E8E7F5" opacity="1.000000" stroke="none" 
	d="
M305.439178,219.250702 
	C305.851105,219.181747 306.253540,219.400955 306.824097,219.778564 
	C306.471344,219.804245 305.950531,219.671555 305.439178,219.250702 
z"/>
</svg>